<?xml version="1.0" standalone="no"?>
<!DOCTYPE svg PUBLIC "-//W3C//DTD SVG 20010904//EN"
 "http://www.w3.org/TR/2001/REC-SVG-20010904/DTD/svg10.dtd">
<svg version="1.0" xmlns="http://www.w3.org/2000/svg"
 width="225.000000pt" height="225.000000pt" viewBox="0 0 225.000000 225.000000"
 preserveAspectRatio="xMidYMid meet">
<metadata>
Created by potrace 1.14, written by Peter Selinger 2001-2017
</metadata>
<g transform="translate(0.000000,225.000000) scale(0.100000,-0.100000)"
fill="#000000" stroke="none">
<path d="M925 2234 c-27 -8 -77 -22 -110 -31 -33 -9 -63 -22 -67 -28 -4 -5 -8
-6 -8 -1 0 4 -11 1 -25 -8 -14 -9 -25 -14 -25 -11 0 2 -17 -5 -37 -16 -20 -11
-58 -32 -85 -46 -26 -14 -48 -29 -48 -34 0 -5 -7 -9 -15 -9 -9 0 -28 -13 -43
-28 -15 -15 -31 -28 -35 -29 -5 -1 -27 -19 -50 -41 -36 -34 -60 -60 -152 -165
-24 -27 -105 -163 -105 -176 0 -6 -5 -11 -12 -11 -6 0 -9 -3 -6 -6 4 -3 -4
-29 -16 -57 -23 -51 -52 -155 -48 -169 1 -5 -2 -8 -8 -8 -5 0 -8 -14 -6 -30 2
-17 0 -32 -4 -35 -4 -2 -6 -16 -5 -30 2 -14 0 -27 -4 -30 -8 -4 -6 -192 3
-255 11 -80 15 -100 20 -109 3 -5 8 -26 12 -47 3 -22 11 -42 18 -46 6 -4 8 -8
4 -8 -8 0 33 -104 61 -153 10 -19 25 -45 33 -58 7 -13 22 -36 33 -50 11 -15
29 -39 39 -55 37 -55 202 -212 263 -251 15 -9 30 -20 33 -24 19 -22 280 -137
280 -123 0 4 6 2 13 -4 6 -5 26 -12 44 -15 17 -3 36 -7 40 -10 44 -27 329 -26
414 1 19 6 45 13 59 14 14 2 30 7 36 10 6 4 22 9 36 12 38 7 121 36 135 48 7
6 13 8 13 4 0 -9 88 42 160 93 77 54 233 207 275 271 17 25 33 47 37 48 5 2 8
9 8 16 0 7 9 22 20 34 12 12 18 22 15 22 -3 0 2 12 12 26 9 15 19 36 20 47 2
11 8 25 13 31 16 21 67 195 68 236 1 17 9 72 13 80 5 11 5 210 -1 210 -3 0 -5
12 -6 28 -2 46 -14 113 -25 133 -5 11 -7 19 -5 19 3 0 -8 39 -25 88 -57 162
-132 277 -269 412 -90 89 -220 191 -220 173 0 -4 -4 -3 -8 2 -7 11 -103 69
-112 68 -6 -1 -30 8 -85 32 -40 17 -57 22 -105 31 -14 2 -32 7 -40 11 -54 21
-345 26 -415 7z"/>
</g>
</svg>
